<svg width="81" height="27" viewBox="0 0 81 27" fill="none" xmlns="http://www.w3.org/2000/svg">
<path d="M15.751 17.2742L22.7448 27H17.0077L10.6149 17.9845H4.71389V27H0.178843V0.281441H10.1232C14.1665 0.281441 17.0623 0.973538 18.8108 2.35773C20.5957 3.7055 21.4881 5.90928 21.4881 8.96907C21.4881 13.3766 19.5758 16.145 15.751 17.2742ZM10.2871 13.9412C12.8005 13.9412 14.5307 13.5588 15.4778 12.7938C16.4249 12.0289 16.8984 10.7357 16.8984 8.91443C16.8984 7.16598 16.4249 5.98213 15.4778 5.36289C14.5307 4.70722 12.8369 4.37938 10.3964 4.37938H4.71389V13.9412H10.2871Z" fill="black"/>
<path d="M31.7946 20.9351L29.1173 27H24.3091L36.1111 0.281441H40.9194L52.6668 27H47.8586L45.1812 20.9351H31.7946ZM43.3782 16.7278L38.5153 5.74536L33.6524 16.7278H43.3782ZM65.5672 0.281441C70.339 0.281441 74.0181 1.44708 76.6043 3.77835C79.1906 6.0732 80.4837 9.31512 80.4837 13.5041C80.4837 17.766 79.2088 21.0808 76.659 23.4485C74.1091 25.8162 70.3026 27 65.2394 27H56.3878V0.281441H65.5672ZM65.4033 4.43402H60.9229V22.7381H65.895C69.1734 22.7381 71.6686 21.9732 73.3806 20.4433C75.0926 18.877 75.9487 16.6003 75.9487 13.6134C75.9487 7.49381 72.4335 4.43402 65.4033 4.43402Z" fill="#FF0000"/>
</svg>
