<svg width="206" height="29" viewBox="0 0 206 29" fill="none" xmlns="http://www.w3.org/2000/svg">
<path d="M16.4915 18.2742L23.4853 28H17.7482L11.3555 18.9845H5.45442V28H0.919367V1.28144H10.8637C14.907 1.28144 17.8029 1.97354 19.5513 3.35773C21.3362 4.7055 22.2286 6.90928 22.2286 9.96907C22.2286 14.3766 20.3163 17.145 16.4915 18.2742ZM11.0276 14.9412C13.541 14.9412 15.2713 14.5588 16.2183 13.7938C17.1654 13.0289 17.639 11.7357 17.639 9.91443C17.639 8.16598 17.1654 6.98213 16.2183 6.36289C15.2713 5.70722 13.5774 5.37938 11.1369 5.37938H5.45442V14.9412H11.0276ZM57.0135 4.72371C54.3544 4.72371 52.1142 5.67079 50.2929 7.56495C48.4716 9.45911 47.5609 11.754 47.5609 14.4495C47.5609 17.145 48.4716 19.4399 50.2929 21.334C52.1142 23.1918 54.3544 24.1206 57.0135 24.1206C59.6726 24.1206 61.9128 23.1918 63.7341 21.334C65.5555 19.4399 66.4661 17.145 66.4661 14.4495C66.4661 11.754 65.5555 9.45911 63.7341 7.56495C61.9128 5.67079 59.6726 4.72371 57.0135 4.72371ZM57.0135 28.2732C53.0067 28.2732 49.6554 26.9619 46.9599 24.3392C44.2644 21.6801 42.9166 18.3835 42.9166 14.4495C42.9166 10.5155 44.2644 7.23711 46.9599 4.61443C49.6554 1.95533 53.0067 0.625772 57.0135 0.625772C61.0204 0.625772 64.3716 1.95533 67.0671 4.61443C69.7627 7.23711 71.1104 10.5155 71.1104 14.4495C71.1104 18.3835 69.7445 21.6619 67.0125 24.2845C64.2805 26.9436 60.9475 28.2732 57.0135 28.2732ZM101.886 1.28144C106.658 1.28144 110.337 2.44708 112.923 4.77835C115.509 7.0732 116.803 10.3151 116.803 14.5041C116.803 18.766 115.528 22.0808 112.978 24.4485C110.428 26.8162 106.621 28 101.558 28H92.7067V1.28144H101.886ZM101.722 5.43402H97.2417V23.7381H102.214C105.492 23.7381 107.987 22.9732 109.699 21.4433C111.411 19.877 112.268 17.6003 112.268 14.6134C112.268 8.49381 108.752 5.43402 101.722 5.43402ZM157.267 1.28144V5.48866H143.006V12.5918H155.792V16.5804H143.006V23.7381H157.704V28H138.471V1.28144H157.267ZM191.718 4.72371C189.059 4.72371 186.819 5.67079 184.998 7.56495C183.176 9.45911 182.266 11.754 182.266 14.4495C182.266 17.145 183.176 19.4399 184.998 21.334C186.819 23.1918 189.059 24.1206 191.718 24.1206C194.378 24.1206 196.618 23.1918 198.439 21.334C200.26 19.4399 201.171 17.145 201.171 14.4495C201.171 11.754 200.26 9.45911 198.439 7.56495C196.618 5.67079 194.378 4.72371 191.718 4.72371ZM191.718 28.2732C187.712 28.2732 184.36 26.9619 181.665 24.3392C178.969 21.6801 177.622 18.3835 177.622 14.4495C177.622 10.5155 178.969 7.23711 181.665 4.61443C184.36 1.95533 187.712 0.625772 191.718 0.625772C195.725 0.625772 199.076 1.95533 201.772 4.61443C204.468 7.23711 205.815 10.5155 205.815 14.4495C205.815 18.3835 204.449 21.6619 201.717 24.2845C198.985 26.9436 195.652 28.2732 191.718 28.2732Z" fill="white"/>
</svg>
