<svg width="220" height="41" viewBox="0 0 220 41" fill="none" xmlns="http://www.w3.org/2000/svg">
<path d="M6.07218 15.037C6.95551 13.553 8.12151 12.4047 9.57018 11.592C11.0542 10.744 12.8032 10.32 14.8172 10.32V16.574H13.2802C10.9128 16.574 9.11084 17.1747 7.87418 18.376C6.67284 19.5773 6.07218 21.662 6.07218 24.63V40H0.0301759V10.797H6.07218V15.037ZM33.038 40.477C30.282 40.477 27.791 39.8587 25.565 38.622C23.339 37.35 21.59 35.5833 20.318 33.322C19.046 31.0253 18.41 28.3753 18.41 25.372C18.41 22.404 19.0637 19.7717 20.371 17.475C21.6783 15.1783 23.4627 13.4117 25.724 12.175C27.9853 10.9383 30.5117 10.32 33.303 10.32C36.0943 10.32 38.6207 10.9383 40.882 12.175C43.1433 13.4117 44.9277 15.1783 46.235 17.475C47.5423 19.7717 48.196 22.404 48.196 25.372C48.196 28.34 47.5247 30.9723 46.182 33.269C44.8393 35.5657 43.002 37.35 40.67 38.622C38.3733 39.8587 35.8293 40.477 33.038 40.477ZM33.038 35.23C34.5927 35.23 36.0413 34.859 37.384 34.117C38.762 33.375 39.875 32.262 40.723 30.778C41.571 29.294 41.995 27.492 41.995 25.372C41.995 23.252 41.5887 21.4677 40.776 20.019C39.9633 18.535 38.8857 17.422 37.543 16.68C36.2003 15.938 34.7517 15.567 33.197 15.567C31.6423 15.567 30.1937 15.938 28.851 16.68C27.5437 17.422 26.5013 18.535 25.724 20.019C24.9467 21.4677 24.558 23.252 24.558 25.372C24.558 28.5167 25.353 30.9547 26.943 32.686C28.5683 34.382 30.6 35.23 33.038 35.23ZM52.1548 25.266C52.1548 22.3333 52.7555 19.7363 53.9568 17.475C55.1935 15.2137 56.8542 13.4647 58.9388 12.228C61.0588 10.956 63.4085 10.32 65.9878 10.32C67.8958 10.32 69.7685 10.744 71.6058 11.592C73.4785 12.4047 74.9625 13.5 76.0578 14.878V0.779999H82.1529V40H76.0578V35.601C75.0685 37.0143 73.6905 38.1803 71.9238 39.099C70.1925 40.0177 68.1962 40.477 65.9348 40.477C63.3908 40.477 61.0588 39.841 58.9388 38.569C56.8542 37.2617 55.1935 35.4597 53.9568 33.163C52.7555 30.831 52.1548 28.1987 52.1548 25.266ZM76.0578 25.372C76.0578 23.358 75.6338 21.609 74.7858 20.125C73.9732 18.641 72.8955 17.5103 71.5528 16.733C70.2102 15.9557 68.7615 15.567 67.2068 15.567C65.6522 15.567 64.2035 15.9557 62.8608 16.733C61.5182 17.475 60.4228 18.588 59.5748 20.072C58.7622 21.5207 58.3558 23.252 58.3558 25.266C58.3558 27.28 58.7622 29.0467 59.5748 30.566C60.4228 32.0853 61.5182 33.2513 62.8608 34.064C64.2388 34.8413 65.6875 35.23 67.2068 35.23C68.7615 35.23 70.2102 34.8413 71.5528 34.064C72.8955 33.2867 73.9732 32.156 74.7858 30.672C75.6338 29.1527 76.0578 27.386 76.0578 25.372ZM116.854 24.683C116.854 25.7783 116.783 26.7677 116.642 27.651H94.3288C94.5054 29.983 95.3711 31.8557 96.9258 33.269C98.4804 34.6823 100.388 35.389 102.65 35.389C105.9 35.389 108.197 34.0287 109.54 31.308H116.059C115.175 33.9933 113.568 36.2017 111.236 37.933C108.939 39.629 106.077 40.477 102.65 40.477C99.8584 40.477 97.3498 39.8587 95.1238 38.622C92.9331 37.35 91.2018 35.5833 89.9298 33.322C88.6931 31.0253 88.0748 28.3753 88.0748 25.372C88.0748 22.3687 88.6754 19.7363 89.8768 17.475C91.1134 15.1783 92.8271 13.4117 95.0178 12.175C97.2438 10.9383 99.7878 10.32 102.65 10.32C105.406 10.32 107.861 10.9207 110.017 12.122C112.172 13.3233 113.85 15.0193 115.052 17.21C116.253 19.3653 116.854 21.8563 116.854 24.683ZM110.547 22.775C110.511 20.549 109.716 18.7647 108.162 17.422C106.607 16.0793 104.681 15.408 102.385 15.408C100.3 15.408 98.5158 16.0793 97.0318 17.422C95.5478 18.7293 94.6644 20.5137 94.3818 22.775H110.547ZM135.467 40.477C132.711 40.477 130.22 39.8587 127.994 38.622C125.768 37.35 124.019 35.5833 122.747 33.322C121.475 31.0253 120.839 28.3753 120.839 25.372C120.839 22.404 121.492 19.7717 122.8 17.475C124.107 15.1783 125.891 13.4117 128.153 12.175C130.414 10.9383 132.94 10.32 135.732 10.32C138.523 10.32 141.049 10.9383 143.311 12.175C145.572 13.4117 147.356 15.1783 148.664 17.475C149.971 19.7717 150.625 22.404 150.625 25.372C150.625 28.34 149.953 30.9723 148.611 33.269C147.268 35.5657 145.431 37.35 143.099 38.622C140.802 39.8587 138.258 40.477 135.467 40.477ZM135.467 35.23C137.021 35.23 138.47 34.859 139.813 34.117C141.191 33.375 142.304 32.262 143.152 30.778C144 29.294 144.424 27.492 144.424 25.372C144.424 23.252 144.017 21.4677 143.205 20.019C142.392 18.535 141.314 17.422 139.972 16.68C138.629 15.938 137.18 15.567 135.626 15.567C134.071 15.567 132.622 15.938 131.28 16.68C129.972 17.422 128.93 18.535 128.153 20.019C127.375 21.4677 126.987 23.252 126.987 25.372C126.987 28.5167 127.782 30.9547 129.372 32.686C130.997 34.382 133.029 35.23 135.467 35.23Z" fill="black"/>
<path d="M155.485 25.584C155.485 22.616 156.068 20.019 157.234 17.793C158.435 15.567 160.078 13.8533 162.163 12.652C164.283 11.4507 166.685 10.85 169.371 10.85C172.409 10.85 174.989 11.592 177.109 13.076C179.229 14.56 180.713 16.4503 181.561 18.747V11.221H183.946V40H181.561V32.421C180.713 34.753 179.211 36.6787 177.056 38.198C174.936 39.682 172.374 40.424 169.371 40.424C166.685 40.424 164.283 39.8233 162.163 38.622C160.078 37.3853 158.435 35.654 157.234 33.428C156.068 31.1667 155.485 28.552 155.485 25.584ZM181.561 25.584C181.561 23.0753 181.031 20.867 179.971 18.959C178.946 17.0157 177.533 15.5317 175.731 14.507C173.929 13.447 171.915 12.917 169.689 12.917C167.357 12.917 165.307 13.4293 163.541 14.454C161.774 15.4433 160.396 16.892 159.407 18.8C158.417 20.708 157.923 22.9693 157.923 25.584C157.923 28.1987 158.417 30.46 159.407 32.368C160.396 34.276 161.774 35.7423 163.541 36.767C165.343 37.7917 167.392 38.304 169.689 38.304C171.915 38.304 173.929 37.7917 175.731 36.767C177.568 35.707 178.999 34.223 180.024 32.315C181.048 30.3717 181.561 28.128 181.561 25.584ZM191.146 25.584C191.146 22.616 191.729 20.019 192.895 17.793C194.096 15.567 195.739 13.8533 197.824 12.652C199.944 11.4507 202.346 10.85 205.032 10.85C207.964 10.85 210.508 11.592 212.664 13.076C214.819 14.5247 216.338 16.415 217.222 18.747V0.779999H219.607V40H217.222V32.368C216.374 34.7353 214.89 36.6787 212.77 38.198C210.65 39.682 208.07 40.424 205.032 40.424C202.346 40.424 199.944 39.8233 197.824 38.622C195.739 37.3853 194.096 35.654 192.895 33.428C191.729 31.1667 191.146 28.552 191.146 25.584ZM217.222 25.584C217.222 23.0753 216.692 20.867 215.632 18.959C214.607 17.0157 213.194 15.5317 211.392 14.507C209.59 13.447 207.576 12.917 205.35 12.917C203.018 12.917 200.968 13.4293 199.202 14.454C197.435 15.4433 196.057 16.892 195.068 18.8C194.078 20.708 193.584 22.9693 193.584 25.584C193.584 28.1987 194.078 30.46 195.068 32.368C196.057 34.276 197.435 35.7423 199.202 36.767C201.004 37.7917 203.053 38.304 205.35 38.304C207.576 38.304 209.59 37.7917 211.392 36.767C213.229 35.707 214.66 34.223 215.685 32.315C216.709 30.3717 217.222 28.128 217.222 25.584Z" fill="#FF0000"/>
</svg>
