<svg width="84" height="41" viewBox="0 0 84 41" fill="none" xmlns="http://www.w3.org/2000/svg">
<path d="M6.18546 15.037C7.06879 13.553 8.23479 12.4047 9.68346 11.592C11.1675 10.744 12.9165 10.32 14.9305 10.32V16.574H13.3935C11.0261 16.574 9.22412 17.1747 7.98746 18.376C6.78612 19.5773 6.18546 21.662 6.18546 24.63V40H0.143457V10.797H6.18546V15.037Z" fill="black"/>
<path d="M19.3713 25.584C19.3713 22.616 19.9543 20.019 21.1203 17.793C22.3216 15.567 23.9646 13.8533 26.0493 12.652C28.1693 11.4507 30.5719 10.85 33.2573 10.85C36.2959 10.85 38.8753 11.592 40.9953 13.076C43.1153 14.56 44.5993 16.4503 45.4473 18.747V11.221H47.8323V40H45.4473V32.421C44.5993 34.753 43.0976 36.6787 40.9423 38.198C38.8223 39.682 36.2606 40.424 33.2573 40.424C30.5719 40.424 28.1693 39.8233 26.0493 38.622C23.9646 37.3853 22.3216 35.654 21.1203 33.428C19.9543 31.1667 19.3713 28.552 19.3713 25.584ZM45.4473 25.584C45.4473 23.0753 44.9173 20.867 43.8573 18.959C42.8326 17.0157 41.4193 15.5317 39.6173 14.507C37.8153 13.447 35.8013 12.917 33.5753 12.917C31.2433 12.917 29.1939 13.4293 27.4273 14.454C25.6606 15.4433 24.2826 16.892 23.2933 18.8C22.3039 20.708 21.8093 22.9693 21.8093 25.584C21.8093 28.1987 22.3039 30.46 23.2933 32.368C24.2826 34.276 25.6606 35.7423 27.4273 36.767C29.2293 37.7917 31.2786 38.304 33.5753 38.304C35.8013 38.304 37.8153 37.7917 39.6173 36.767C41.4546 35.707 42.8856 34.223 43.9103 32.315C44.9349 30.3717 45.4473 28.128 45.4473 25.584ZM55.0324 25.584C55.0324 22.616 55.6154 20.019 56.7814 17.793C57.9827 15.567 59.6257 13.8533 61.7104 12.652C63.8304 11.4507 66.2331 10.85 68.9184 10.85C71.8511 10.85 74.3951 11.592 76.5504 13.076C78.7057 14.5247 80.2251 16.415 81.1084 18.747V0.779999H83.4934V40H81.1084V32.368C80.2604 34.7353 78.7764 36.6787 76.6564 38.198C74.5364 39.682 71.9571 40.424 68.9184 40.424C66.2331 40.424 63.8304 39.8233 61.7104 38.622C59.6257 37.3853 57.9827 35.654 56.7814 33.428C55.6154 31.1667 55.0324 28.552 55.0324 25.584ZM81.1084 25.584C81.1084 23.0753 80.5784 20.867 79.5184 18.959C78.4937 17.0157 77.0804 15.5317 75.2784 14.507C73.4764 13.447 71.4624 12.917 69.2364 12.917C66.9044 12.917 64.8551 13.4293 63.0884 14.454C61.3217 15.4433 59.9437 16.892 58.9544 18.8C57.9651 20.708 57.4704 22.9693 57.4704 25.584C57.4704 28.1987 57.9651 30.46 58.9544 32.368C59.9437 34.276 61.3217 35.7423 63.0884 36.767C64.8904 37.7917 66.9397 38.304 69.2364 38.304C71.4624 38.304 73.4764 37.7917 75.2784 36.767C77.1157 35.707 78.5467 34.223 79.5714 32.315C80.5961 30.3717 81.1084 28.128 81.1084 25.584Z" fill="#FF0000"/>
</svg>
